<?xml version="1.0" encoding="UTF-8"?>
<svg id="Capa_2" data-name="Capa 2" xmlns="http://www.w3.org/2000/svg" viewBox="0 0 273.84 52.07">
  <defs>
    <style>
      .cls-1 {
        fill: #1d2545;
      }
    </style>
  </defs>
  <g id="Capa_1-2" data-name="Capa 1">
    <g>
      <path class="cls-1" d="m30.08,46.5c-3.39,1.11-4.08,5.57-4.08,5.57v-9.33c0-5.12,4.42-6.65,4.42-6.65l.08-.04c4.47-2.29,7.31-7.04,7.31-12.36,0-7.79-6.32-14.11-14.11-14.11s-14.11,6.32-14.11,14.11c0,5.34,2.95,10.01,7.32,12.4h0s4.42,1.53,4.42,6.65v9.33s-.93-4.52-3.98-5.56C7.34,43.74,0,34.57,0,23.69,0,10.6,10.6,0,23.69,0s23.69,10.6,23.69,23.69c0,10.87-7.32,20.03-17.3,22.81Z"/>
      <path class="cls-1" d="m17.72,33.53s3.05,2.59,5.96,2.59,6.12-2.59,6.12-2.59"/>
      <g>
        <path class="cls-1" d="m68.66,22.57h10.58v13.83c-1.72.56-3.33.95-4.84,1.18s-3.06.34-4.64.34c-4.03,0-7.1-1.18-9.22-3.55-2.12-2.37-3.18-5.76-3.18-10.19s1.23-7.66,3.7-10.07c2.46-2.41,5.88-3.61,10.24-3.61,2.74,0,5.38.55,7.92,1.64l-1.88,4.53c-1.95-.97-3.97-1.46-6.08-1.46-2.44,0-4.4.82-5.87,2.46-1.47,1.64-2.21,3.85-2.21,6.62s.59,5.1,1.78,6.63,2.91,2.29,5.17,2.29c1.18,0,2.38-.12,3.59-.36v-5.57h-5.05v-4.71h0Z"/>
        <path class="cls-1" d="m102.2,27.31c0,3.32-.87,5.92-2.63,7.79-1.75,1.87-4.19,2.81-7.32,2.81-1.96,0-3.69-.43-5.18-1.29s-2.65-2.09-3.45-3.7c-.8-1.61-1.2-3.48-1.2-5.62,0-3.33.87-5.92,2.61-7.77,1.74-1.85,4.18-2.77,7.33-2.77,1.96,0,3.69.43,5.18,1.28s2.65,2.07,3.45,3.67c.8,1.59,1.2,3.46,1.2,5.6h0Zm-14.1,0c0,2.02.33,3.55,1,4.58.66,1.03,1.74,1.55,3.24,1.55s2.55-.51,3.2-1.54c.65-1.03.98-2.56.98-4.59s-.33-3.53-.98-4.54-1.73-1.51-3.23-1.51-2.55.5-3.21,1.51-.98,2.52-.98,4.55h0Z"/>
        <path class="cls-1" d="m110.86,37.55h-5.57V9.16h5.57v28.39Z"/>
        <path class="cls-1" d="m126.48,21.33h-4.82v16.22h-5.57v-16.22h-3.06v-2.68l3.06-1.5v-1.5c0-2.32.57-4.02,1.72-5.09,1.14-1.07,2.97-1.61,5.49-1.61,1.92,0,3.63.29,5.13.86l-1.42,4.09c-1.12-.35-2.15-.53-3.1-.53-.79,0-1.36.23-1.72.7-.35.47-.53,1.07-.53,1.8v1.28h4.82v4.18Z"/>
      </g>
      <g>
        <path class="cls-1" d="m146.08,37.55h-4.31v-12.44c0-1.55-.29-2.7-.87-3.46-.58-.76-1.5-1.14-2.74-1.14-1.66,0-2.87.54-3.64,1.61-.77,1.08-1.16,2.87-1.16,5.37v10.05h-4.29v-20.18h3.36l.6,2.65h.22c.56-.96,1.37-1.7,2.44-2.23s2.23-.79,3.51-.79c3.1,0,5.16,1.06,6.17,3.17h.29c.6-1,1.44-1.78,2.52-2.34,1.08-.56,2.32-.84,3.72-.84,2.41,0,4.16.61,5.26,1.83,1.1,1.22,1.65,3.07,1.65,5.57v13.15h-4.29v-12.44c0-1.55-.29-2.7-.89-3.46-.59-.76-1.51-1.14-2.74-1.14-1.67,0-2.89.52-3.66,1.56-.77,1.04-1.16,2.64-1.16,4.79v10.69h0Z"/>
        <path class="cls-1" d="m175.18,37.55l-.86-2.81h-.15c-.97,1.23-1.95,2.06-2.94,2.51s-2.25.67-3.8.67c-1.98,0-3.53-.53-4.64-1.61-1.11-1.07-1.67-2.59-1.67-4.54,0-2.08.77-3.65,2.32-4.71,1.55-1.06,3.9-1.64,7.06-1.73l3.48-.11v-1.08c0-1.29-.3-2.25-.9-2.89s-1.53-.96-2.8-.96c-1.03,0-2.02.15-2.97.46-.95.3-1.86.66-2.74,1.08l-1.39-3.06c1.09-.57,2.29-1.01,3.59-1.3,1.3-.3,2.53-.45,3.69-.45,2.57,0,4.5.56,5.81,1.68s1.96,2.88,1.96,5.27v13.59h-3.07Zm-6.39-2.92c1.56,0,2.81-.43,3.75-1.3.94-.87,1.41-2.09,1.41-3.66v-1.75l-2.59.11c-2.02.07-3.49.41-4.41,1.01-.92.6-1.38,1.52-1.38,2.76,0,.9.27,1.6.8,2.09.53.49,1.34.74,2.41.74Z"/>
        <path class="cls-1" d="m199.74,37.55h-4.31v-12.41c0-1.56-.31-2.72-.94-3.48-.63-.77-1.62-1.15-2.98-1.15-1.81,0-3.14.53-3.98,1.61-.84,1.07-1.26,2.87-1.26,5.38v10.05h-4.29v-20.18h3.36l.6,2.65h.22c.61-.96,1.47-1.7,2.59-2.23s2.36-.79,3.72-.79c4.84,0,7.26,2.46,7.26,7.39v13.15h0Z"/>
        <path class="cls-1" d="m216.09,37.55l-.86-2.81h-.15c-.97,1.23-1.95,2.06-2.94,2.51-.98.44-2.25.67-3.8.67-1.98,0-3.53-.53-4.64-1.61-1.11-1.07-1.67-2.59-1.67-4.54,0-2.08.77-3.65,2.32-4.71,1.55-1.06,3.9-1.64,7.06-1.73l3.48-.11v-1.08c0-1.29-.3-2.25-.9-2.89s-1.53-.96-2.8-.96c-1.03,0-2.02.15-2.97.46-.95.3-1.86.66-2.74,1.08l-1.39-3.06c1.09-.57,2.29-1.01,3.59-1.3,1.3-.3,2.53-.45,3.69-.45,2.57,0,4.5.56,5.81,1.68s1.96,2.88,1.96,5.27v13.59h-3.07Zm-6.39-2.92c1.56,0,2.81-.43,3.75-1.3.94-.87,1.41-2.09,1.41-3.66v-1.75l-2.59.11c-2.02.07-3.49.41-4.41,1.01-.92.6-1.38,1.52-1.38,2.76,0,.9.27,1.6.8,2.09.53.49,1.34.74,2.41.74Z"/>
        <path class="cls-1" d="m240.68,17.37v2.35l-3.45.64c.32.43.58.95.79,1.57.21.62.31,1.28.31,1.97,0,2.08-.72,3.72-2.15,4.91-1.44,1.19-3.41,1.79-5.93,1.79-.64,0-1.23-.05-1.75-.15-.92.57-1.39,1.24-1.39,2.01,0,.46.21.81.65,1.04.43.23,1.23.35,2.38.35h3.52c2.23,0,3.92.47,5.07,1.42,1.16.95,1.73,2.32,1.73,4.1,0,2.29-.94,4.05-2.83,5.29-1.89,1.24-4.61,1.86-8.17,1.86-2.75,0-4.85-.49-6.29-1.46-1.45-.97-2.17-2.36-2.17-4.16,0-1.24.39-2.28,1.18-3.13s1.88-1.43,3.29-1.76c-.57-.24-1.04-.64-1.41-1.18-.37-.54-.56-1.11-.56-1.71,0-.75.21-1.39.64-1.91.43-.52,1.06-1.04,1.9-1.55-1.05-.45-1.89-1.18-2.55-2.2-.65-1.02-.98-2.21-.98-3.57,0-2.19.69-3.89,2.07-5.09,1.38-1.2,3.35-1.81,5.9-1.81.57,0,1.17.04,1.8.12.63.08,1.1.16,1.41.25h6.99Zm-15.85,23.31c0,.92.42,1.64,1.25,2.13s2,.75,3.51.75c2.34,0,4.08-.34,5.22-1s1.72-1.56,1.72-2.66c0-.87-.31-1.5-.94-1.87s-1.79-.56-3.49-.56h-3.25c-1.23,0-2.21.29-2.93.87-.72.58-1.08,1.36-1.08,2.34h0Zm1.84-16.79c0,1.27.32,2.24.98,2.92.65.68,1.58,1.02,2.8,1.02,2.48,0,3.72-1.33,3.72-3.98,0-1.31-.31-2.33-.92-3.04-.61-.71-1.55-1.07-2.8-1.07s-2.18.35-2.82,1.06-.96,1.73-.96,3.08h0Z"/>
        <path class="cls-1" d="m250.99,37.91c-3.14,0-5.59-.91-7.36-2.74-1.77-1.83-2.66-4.35-2.66-7.56s.82-5.89,2.46-7.77c1.64-1.89,3.9-2.83,6.77-2.83,2.66,0,4.77.81,6.31,2.43,1.55,1.62,2.32,3.84,2.32,6.68v2.32h-13.45c.06,1.96.59,3.46,1.59,4.52s2.4,1.58,4.21,1.58c1.19,0,2.3-.11,3.33-.34,1.03-.23,2.13-.6,3.31-1.12v3.48c-1.05.5-2.1.85-3.17,1.06s-2.29.31-3.67.31h0Zm-.79-17.66c-1.36,0-2.45.43-3.27,1.3-.82.86-1.31,2.12-1.47,3.78h9.16c-.02-1.67-.43-2.93-1.2-3.78s-1.85-1.29-3.21-1.29h0Z"/>
        <path class="cls-1" d="m271.7,17c.86,0,1.57.06,2.13.18l-.42,4c-.61-.15-1.24-.22-1.9-.22-1.72,0-3.1.56-4.17,1.68-1.06,1.12-1.6,2.57-1.6,4.36v10.54h-4.29v-20.18h3.36l.57,3.56h.22c.67-1.2,1.54-2.16,2.62-2.87,1.08-.7,2.23-1.06,3.48-1.06h0Z"/>
      </g>
    </g>
  </g>
</svg>