<?xml version="1.0" encoding="utf-8"?>
<!-- Generator: Adobe Illustrator 27.4.0, SVG Export Plug-In . SVG Version: 6.00 Build 0)  -->
<svg version="1.1" id="Capa_1" xmlns="http://www.w3.org/2000/svg" xmlns:xlink="http://www.w3.org/1999/xlink" x="0px" y="0px"
	 viewBox="0 0 145 40" style="enable-background:new 0 0 145 40;" xml:space="preserve">
<style type="text/css">
	.st0{fill-rule:evenodd;clip-rule:evenodd;fill:#BFB8B8;}
	.st1{fill:#BFB8B8;}
</style>
<g>
	<path class="st0" d="M96.6,29.6c-5.6,0-11.2,0-16.8,0c0.1,7.4,9.8,6.5,16.8,6c0,1.2,0,2.4,0,3.5c-6.2,1.2-13.6,1.7-18-1.2
		c-5.4-3.5-6.3-14.6-1.2-19.5c3.4-3.4,12.2-4.3,16.2-0.3C96.1,20.5,96.8,24.3,96.6,29.6z M79.6,25.9c3.9,0,7.8,0,11.7,0
		C92.6,16.8,78.6,17.1,79.6,25.9z"/>
	<path class="st0" d="M70.5,16.7c0,1.3,0,2.4,0,3.7c-4.1-0.5-8.3-0.5-10.7,1.4s-2.9,6.1-1.7,9.3c1.7,4.9,7.5,5,13.2,4.5
		c0,1.2,0,2.4,0,3.5c-5.7,1.2-12.2,1.2-15.9-2.2c-4.6-4.2-4.6-14.3,0.3-18.3C58.8,16.1,65.4,15,70.5,16.7z"/>
	<path class="st0" d="M118.7,16.7c0,1.3,0,2.4,0,3.7c-4.1-0.5-8.3-0.5-10.7,1.4s-2.9,6.1-1.7,9.3c1.7,4.9,7.5,5,13.2,4.5
		c0,1.2,0,2.4,0,3.5c-5.7,1.2-12.2,1.2-15.9-2.2c-4.6-4.2-4.6-14.3,0.3-18.3C107,16.1,113.6,15,118.7,16.7z"/>
	<path class="st0" d="M144.3,22.9c0-1.9-0.5-3.3-1-4.3c-2.4-4.1-12.7-3.5-18.1-2c0,1.1,0,2.3,0,3.4c4.8-0.2,13.4-2.4,13.5,2.9v2.3
		c-8.2-0.5-16.7,0.9-16.8,7.8c0,1.5,0.5,3.4,1.2,4.2c3.9,4.5,13.2,2.2,15.6-2.4c0,0.4,0,0.8,0,1.3v3.4h5.6L144.3,22.9z M138.7,29.4
		c0,3.3-4.2,6.5-7.7,6.4c-2.3-0.1-4.3-1.5-3.4-4.5c1.1-3.4,6.3-2.8,11.1-2.9V29.4z"/>
	<path class="st0" d="M21,0h8.1l-9.5,12h-8.1L21,0z"/>
	<path class="st1" d="M32.5,16H0v5.4h32.5V16z"/>
	<path class="st1" d="M32.5,25.2H0v5.4h32.5V25.2z"/>
	<path class="st1" d="M32.5,34.5H0v5.4h32.5V34.5z"/>
</g>
</svg>
