<?xml version="1.0" encoding="utf-8"?>
<!-- Generator: Adobe Illustrator 27.4.0, SVG Export Plug-In . SVG Version: 6.00 Build 0)  -->
<svg version="1.1" id="Capa_1" xmlns="http://www.w3.org/2000/svg" xmlns:xlink="http://www.w3.org/1999/xlink" x="0px" y="0px"
	 viewBox="0 0 270 157.8" style="enable-background:new 0 0 270 157.8;" xml:space="preserve">
<style type="text/css">
	.st0{fill:#B1B1B1;}
</style>
<path class="st0" d="M66.9,110.3c-3,0-6.1,0.1-9.1-0.1c-0.6,0-1.3-0.6-1.7-1.1C46.1,95.4,36.1,81.7,26.1,68
	c-0.2-0.3-0.3-0.7-0.6-0.8c-0.8-0.4-1.7-0.8-2.6-1.1c-0.2,0.8-0.7,1.5-0.7,2.3c-0.1,13,0,26-0.1,39.1c0,2.7,0,2.7-2.8,2.8
	c-1.9,0-4.6,0.7-5.5-0.3c-1-1.1-0.5-3.7-0.5-5.7c0-30,0-59.9,0-89.9c0-0.8,0-1.7,0-2.6c3.3,0,6.3,0,9.3,0c5,0.1,10.1-0.2,15.1,0.3
	c12.1,1.1,22.8,13,23.1,25.2c0.1,4.6-0.2,9.1-2.3,13.4c-4.2,8.5-11.2,13.2-20.3,15.1c-0.7,0.1-1.4,0.3-2.5,0.5
	c10.6,14.6,21,28.9,31.5,43.3C67.1,109.8,67,110,66.9,110.3z M22.3,57.1c4.4,0,8.6,0.2,12.8-0.1c5.5-0.4,10.2-2.8,13.4-7.3
	c7.4-10.3,2.7-23.7-8.6-28.1c-3.1-1.2-6.2-1.2-9.4-1.1c-2.7,0-5.4,0-8.1,0C22.3,32.9,22.3,44.9,22.3,57.1z"/>
<path class="st0" d="M121.9,35.2c0,0.9,0,1.6,0,2.4c0,15.8,0.1,31.5,0,47.3c0,6.9-2.2,13.1-7,18.3c-12.8,13.9-36.2,10.6-44.4-6.5
	c-1.9-4-2.9-8.1-2.9-12.5c0.1-15.6,0-31.1,0-46.7c0-0.7,0-1.4,0-2.3c2.8,0,5.4,0,8,0c0.3,0,0.7,0.5,0.8,0.9c0.1,0.5,0,1.1,0,1.6
	c0,15.4,0,30.8,0,46.3c0,7.9,3.7,13.7,10.7,17.1c11.3,5.5,24.7-2.5,25.7-15.4c0.1-1.7,0.1-3.5,0.1-5.2c0-14.4,0-28.7,0-43.1
	c0-1.8,0.4-2.3,2.2-2.2C117.3,35.3,119.5,35.2,121.9,35.2z"/>
<path class="st0" d="M177.1,35.8c-1.1,1.4-2.1,2.8-3.2,4.2c-8.3,10.3-16.7,20.7-25.1,31c-1.1,1.4-0.6,2.3,0.3,3.3
	c4.9,6.2,9.9,12.3,14.8,18.5c4.1,5.1,8.2,10.3,12.3,15.4c0.4,0.5,0.7,1,1.3,2.1c-3.7,0-6.8,0.1-10-0.1c-0.5,0-1.1-0.6-1.5-1.1
	c-8.5-10.6-17-21.1-25.5-31.7c-0.4-0.5-0.9-1.1-1.7-1.9c-0.1,1-0.2,1.5-0.2,2c0,10-0.1,20.1,0,30.1c0,2.1-0.7,2.7-2.6,2.6
	c-2-0.1-4.7,0.6-5.9-0.5c-1-0.9-0.4-3.7-0.4-5.7c0-22.1,0-44.3,0-66.4c0-0.8,0-1.6,0-2.5c2.7,0,5.3-0.1,7.8,0.1c0.4,0,1,1.1,1,1.6
	c0.1,8.8,0,17.5,0,26.3c0,2.2,0,4.3,0,6.5c0.2,0.1,0.3,0.1,0.5,0.2c1.3-1.6,2.6-3.2,3.9-4.8c6.5-8,12.9-16,19.4-24
	c1.2-1.5,2.3-3.1,3.5-4.6c0.4-0.5,1-1.1,1.5-1.1c3.1-0.1,6.2-0.1,9.3-0.1C176.9,35.5,177,35.7,177.1,35.8z"/>
<path class="st0" d="M242.4,110.3c-3.1,0-5.9,0.1-8.7-0.1c-0.5,0-1.2-0.9-1.4-1.6c-2.3-6.1-4.5-12.2-6.6-18.3
	c-0.5-1.5-1.3-1.9-2.8-1.9c-7.3,0-14.6,0-21.9,0c-1.6,0-2.5,0.6-3.1,2.2c-2,5.9-4.3,11.7-6.3,17.6c-0.6,1.7-1.5,2.4-3.4,2.3
	c-2.2-0.2-4.5,0-6.9,0c0.1-0.6,0.1-1,0.2-1.4c5.6-14.2,11.2-28.4,16.7-42.6c4.3-11.1,8.5-22.2,12.7-33.3c0.2-0.5,0.6-0.9,1-1.3
	c0.3,0.4,0.8,0.8,1,1.3c8.3,21.6,16.7,43.2,25,64.8C239.4,101.7,240.7,105.7,242.4,110.3z M201.8,80.2c6.9,0,13.3,0,20.1,0
	c-3.3-9.1-6.5-18-9.7-26.8c-0.2,0-0.3-0.1-0.5-0.1C208.4,62.2,205.1,71,201.8,80.2z"/>
<path class="st0" d="M249.4,35.2c2.5,0,4.8-0.1,7.2,0.1c0.5,0,1,0.8,1.3,1.3c0.2,0.4,0,0.9,0,1.4c0,17.7,0,35.4,0,53.2
	c0,1.9-0.5,2.7-2.4,2.5c-1.3-0.1-2.7-0.1-4,0c-1.7,0.2-2.1-0.5-2.1-2.1c0.1-12.8,0-25.6,0-38.4C249.4,47.2,249.4,41.3,249.4,35.2z"
	/>
<path class="st0" d="M202.9,136.3c0,6.4-5.5,11.8-12.1,11.8c-6.2,0-11.9-5.6-11.9-11.9c0-6.6,5.5-12.1,12-12.1
	C197.4,124.1,202.8,129.7,202.9,136.3z M198.9,136.5c0-4.2-3.7-8.2-7.8-8.2c-4.1-0.1-8.1,3.8-8.1,7.7c0,4.2,3.6,8,7.7,8.1
	C194.9,144.1,198.9,140.5,198.9,136.5z"/>
<path class="st0" d="M115.7,147.4c-4.2,1-4.8,0.8-6.6-2.3c-1.1-1.9-2.2-3.8-3.3-5.7c-0.8-1.5-2.1-1.8-3.5-1.5
	c-0.5,0.1-1,1.1-1.1,1.7c-0.1,2.6-0.1,5.3-0.1,8.2c-1.1,0-2,0.2-2.8-0.1c-0.5-0.2-1.3-1-1.3-1.5c-0.1-6.7,0-13.4,0-20.1
	c0-1.2,0.3-1.7,1.6-1.6c2.7,0.1,5.4,0,8.2,0.1c3.3,0.1,5.9,1.8,6.7,4.5c0.9,3.1,0.2,5.6-2.6,7.7c-1.2,0.9-1.2,1.3-0.4,2.5
	C112.3,141.8,113.9,144.5,115.7,147.4z M104.6,128.1c-3.5,0.1-3.5,0.1-3.4,3.6c0,0.4-0.1,0.8,0,1.2c0.1,0.4,0.5,1,0.8,1
	c2.1-0.1,4.3-0.1,6.4-0.5c0.6-0.1,1.4-1.7,1.3-2.5c-0.1-0.8-1-1.8-1.8-2.2C107,128.2,105.7,128.3,104.6,128.1z"/>
<path class="st0" d="M214.4,124.8c3.9,0,7.5-0.2,11.1,0.1c3,0.2,4.6,2.2,5.2,5c0.6,2.7-0.1,5.1-2.4,6.7c-1.3,1-1.3,1.7-0.5,2.9
	c1.3,1.9,2.4,4,3.6,6c0.3,0.6,0.6,1.3,0.9,1.9c-2.8,1.2-4.5,0.6-5.8-1.7c-1.2-2.2-2.5-4.4-3.8-6.6c-0.8-1.3-3-1.9-4.1-1.1
	c-0.4,0.2-0.6,1-0.6,1.5c-0.1,2.3-0.1,4.5,0,6.8c0,1.4-0.9,1.6-1.9,1.7c-1.1,0.1-1.8-0.4-1.8-1.6C214.4,139.2,214.4,132,214.4,124.8
	z M222.3,128.2c-4.7,0-4.2-0.5-4.2,3.8c0,0.3-0.1,0.7,0.1,1c0.3,0.4,0.7,1.1,1.1,1.1c1.8,0.1,3.6,0.2,5.4-0.1
	c1.4-0.2,2.6-1.2,2.6-2.8c0-1.7-1.2-2.5-2.6-2.8C223.6,128.2,222.6,128.2,222.3,128.2z"/>
<path class="st0" d="M126.6,124.6c4.7,0,9.1,0,13.6,0c1.7,0,1.2,1.4,1.3,2.4c0.1,1-0.2,1.7-1.4,1.7c-2.2,0-4.4,0-6.6,0
	c-0.8,0-1.7,0.1-2.9,0.1c0,1.2,0.1,2.2,0,3.2c-0.1,1.3,0.3,1.8,1.7,1.7c2.1-0.1,4.1,0,6.2,0c1.4-0.1,2,0.5,1.9,1.9
	c-0.1,1.2,0.1,2.4-1.9,2.3c-2.1-0.2-4.3-0.1-6.4,0c-0.5,0-1.4,0.8-1.4,1.3c-0.1,5.5-0.5,4.5,4.1,4.5c1.7,0,3.3,0.1,5,0
	c1.4-0.1,1.7,0.6,1.7,1.8c0,1.1,0.2,2.3-1.4,2.3c-4.1,0-8.2,0.1-12.4,0c-0.4,0-1-0.8-1.1-1.2C126.6,139.3,126.6,132.1,126.6,124.6z"
	/>
<path class="st0" d="M42.2,124.7c0,3.1,0,6.1,0,9.6c0.7-0.6,1.1-0.9,1.4-1.3c1.6-2.3,3.2-4.5,4.8-6.8c1-1.5,3.2-2.2,4.9-1.6
	c1.2,0.5,0.8,1.1,0.2,1.8c-2.2,2.9-4.4,5.8-6.7,8.6c-0.7,0.8-0.7,1.3,0,2.1c2.3,2.8,4.5,5.7,6.7,8.6c0.3,0.4,0.5,1,0.8,1.5
	c-3.1,1.1-4.6,0.7-6.3-1.8c-1.7-2.5-3.5-4.9-5.3-7.3c-0.2,0.1-0.4,0.1-0.6,0.2c0,2.5-0.1,5,0,7.4c0,1.3-0.2,2.1-1.8,2
	c-1.4-0.1-2.5-0.1-2.4-2.1c0.2-6,0.1-12.1,0.1-18.1C38,124,38,124,42.2,124.7z"/>
<path class="st0" d="M165.9,129.1c-1.9,1.2-3.6,1.6-5.4-0.2c-0.4-0.4-1.6-0.1-2.4-0.1c0.1,0.9-0.1,2,0.3,2.6
	c0.5,0.7,1.6,1.1,2.4,1.6c1.1,0.6,2.3,1,3.3,1.8c2.4,1.7,4,3.9,3.3,7.1c-0.8,3.5-3.1,5.5-6.5,6.2c-2.5,0.5-6-1.2-7.5-3.6
	c-0.1-0.2-0.2-0.3-0.3-0.5c-0.3-1-1.7-1.9-0.3-2.9c1.6-1.1,3.3-0.5,4.1,1c1.1,1.9,3.2,2.6,4.8,1.5c2.3-1.6,2.3-3.8-0.1-5.3
	c-1.7-1.1-3.6-1.9-5.3-3.1c-2.7-1.9-3.4-4.1-2.4-6.9c0.9-2.4,3.5-4.1,6-4.1C163,124.3,165.1,125.9,165.9,129.1z"/>
<path class="st0" d="M19.3,148.1c-3-0.2-5.5-1.6-7-4.4c-0.5-0.9-1.2-2,0.1-2.8c1.2-0.8,3.1-0.3,3.8,0.8c0.4,0.7,1,1.4,1.7,1.9
	c1.6,1,3,0.5,4.4-1.3c1.2-1.6,0.5-2.8-0.8-3.7c-1.8-1.2-3.8-2.1-5.7-3.3c-2.3-1.4-3.2-3.5-2.7-6.1c0.5-2.7,2.3-4.1,4.7-4.7
	c2.6-0.6,4.8,0.2,6.3,2.4c0.5,0.6,0.8,2.2,0.6,2.4c-1.1,0.6-2.2,1.7-3.6,0.6c-0.4-0.3-0.9-0.6-1.2-1c-0.7-0.7-1.6-1.1-2.1-0.1
	c-0.4,0.7-0.7,2.1-0.3,2.5c0.8,0.9,2.1,1.6,3.3,2.1c2.6,1.2,4.9,2.6,5.8,5.4C27.9,143.1,24.1,148.1,19.3,148.1z"/>
<path class="st0" d="M252.7,147.8c-1.2,0-2.2,0.2-3.1-0.1c-0.5-0.2-1-1.1-1-1.7c0-5,0-10,0.1-14.9c0-2.9,0-2.9-2.8-2.9
	c-0.5,0-0.9,0-1.4,0c-1.4,0.2-1.9-0.5-1.9-1.8c0-1.4,0.4-1.9,1.8-1.9c4.4,0.1,8.8,0,13.2,0c1.3,0,1.6,0.6,1.6,1.7c0,1.1-0.1,2-1.6,2
	c-0.1,0-0.1,0-0.2,0c-1.4,0.1-3.6-0.4-4.2,0.4c-0.8,1.1-0.5,3-0.5,4.6C252.7,137.9,252.7,142.7,252.7,147.8z"/>
<path class="st0" d="M259.5,104.5c0,3.4-2.5,5.8-6,5.7c-3.4,0-5.5-2.5-5.7-6.1c-0.2-2.6,2.9-5.8,6-5.8
	C256.9,98.4,259.5,101.2,259.5,104.5z"/>
<path class="st0" d="M65.7,124.7c0.4-0.1,0.6-0.1,0.8-0.1c3.2-0.1,3.2-0.1,3.2,3.1c0,6,0,12,0.1,17.9c0,1.7-0.6,2.2-2.2,2.2
	c-1.7,0-2-0.7-2-2.2c0.1-6.5,0-13,0-19.5C65.6,125.7,65.6,125.2,65.7,124.7z"/>
</svg>
