<svg width="122" height="52" viewBox="0 0 122 52" fill="none" xmlns="http://www.w3.org/2000/svg">
<g clip-path="url(#clip0_1530_10349)">
<path d="M0 0H122V52H0V0Z" fill="white"/>
<path d="M28.2371 10C20.3763 10 14 16.1414 14 23.7127C14 31.284 20.3763 37.4254 28.2371 37.4254C36.0979 37.4254 42.4742 31.284 42.4742 23.7127C42.4742 16.1414 36.1036 10 28.2371 10Z" fill="white"/>
<path d="M18.4802 5C8.27657 5 0 12.9717 0 22.7995C0 32.6273 8.27657 40.599 18.4802 40.599C28.6837 40.599 36.9603 32.6273 36.9603 22.7995C36.9603 12.9717 28.6911 5 18.4802 5ZM12.4259 21.5906C8.18059 21.5906 4.7474 18.2768 4.7474 14.1949C4.7474 10.113 8.18059 6.79915 12.4259 6.79915C16.6713 6.79915 20.1118 10.113 20.1118 14.1949C20.1118 18.2768 16.6713 21.5906 12.4259 21.5906Z" fill="url(#paint0_linear_1530_10349)"/>
<path d="M83.9914 22.3444V36.8514C83.9914 38.2879 84.0431 39.7599 84.0948 40.6061H80.4917L80.3293 38.7785H80.2481C79.4507 40.1652 77.8486 40.8906 76.1652 40.8906C73.0642 40.8906 70.5835 38.3448 70.5835 34.4336C70.554 30.2166 73.3079 27.749 76.431 27.749C78.0553 27.749 79.2883 28.3179 79.8789 29.1641H79.9306V22.3515H83.9914V22.3444ZM79.9306 33.374C79.9306 33.1393 79.9306 32.8833 79.8789 32.6557C79.6353 31.5962 78.7567 30.7499 77.5016 30.7499C75.6336 30.7499 74.7033 32.3428 74.7033 34.3269C74.7033 36.4389 75.796 37.7759 77.4794 37.7759C78.6533 37.7759 79.6205 37.0007 79.8568 35.8985C79.9085 35.6425 79.938 35.3296 79.938 35.0238V33.3811L79.9306 33.374Z" fill="#57575A"/>
<path d="M51.0104 32.4709V32.3926C52.5609 31.8522 54.1926 30.3375 54.1926 28.1472C54.1926 26.5543 53.6019 25.3454 52.5092 24.5205C51.9112 24.0511 51.2762 23.7596 50.3755 23.6458C48.1605 23.3684 41.3753 23.4964 41.3753 23.4964C41.3384 23.4964 41.3015 23.5107 41.272 23.5107V40.5848H45.3032V33.7722H46.5067C48.19 33.8007 48.9653 34.3625 49.4673 36.5527C49.9768 38.6861 50.4271 40.1013 50.7003 40.5919H54.8644C54.5174 39.9235 53.9858 37.655 53.4247 35.6781C52.9743 34.078 52.2803 32.9473 51.0178 32.4638L51.0104 32.4709ZM46.9054 30.9562H45.3032V26.1987C45.5985 26.1205 46.1597 26.0707 47.149 26.0707C49.017 26.0707 50.1392 26.8956 50.1392 28.4672C50.1392 30.0388 48.9357 30.9633 46.9054 30.9633V30.9562Z" fill="#57575A"/>
<path d="M67.5119 37.4132C66.4191 37.7759 65.2969 37.9536 63.9088 37.9536C62.0114 37.9536 60.3575 37.1856 60.2246 35.5358L68.6341 35.5643C68.6858 35.2514 68.767 34.6611 68.767 33.9927C68.767 30.8779 67.1648 27.7205 62.949 27.7205C58.4379 27.7205 56.3558 31.2406 56.3558 34.4336C56.3558 38.3945 58.8883 40.8622 63.3256 40.8622C64.8613 40.8622 66.2862 40.6559 67.5119 40.2435V37.4203V37.4132ZM62.7349 30.309C64.5733 30.309 65.0016 31.9304 65.0016 32.8549H60.1951C60.2985 31.8237 60.9925 30.309 62.7349 30.309Z" fill="#57575A"/>
<path d="M118.486 32.9402C116.883 32.3997 116.374 32.094 116.374 31.4753C116.374 30.8566 116.935 30.4726 117.924 30.4726C119.017 30.4726 120.169 30.885 120.752 31.1695L121.446 28.4956C120.641 28.1116 119.312 27.749 117.784 27.749C114.55 27.749 112.468 29.5268 112.468 31.8877C112.439 33.3526 113.48 34.7962 116.204 35.6425C117.696 36.1332 118.102 36.4389 118.102 37.1074C118.102 37.7759 117.592 38.1385 116.367 38.1385C115.141 38.1385 113.642 37.655 112.896 37.2212V40.3075C113.834 40.6559 115.045 40.8835 116.367 40.8835C120.102 40.8835 122 39.1554 122 36.7945C121.97 34.9669 120.959 33.7367 118.471 32.9402H118.486Z" fill="url(#paint1_linear_1530_10349)"/>
<path d="M92.962 32.9402C91.3598 32.3997 90.8577 32.094 90.8577 31.4753C90.8577 30.8566 91.4189 30.4726 92.4082 30.4726C93.5009 30.4726 94.6527 30.885 95.236 31.1695L95.93 28.4956C95.1326 28.1116 93.7963 27.749 92.2679 27.749C89.0415 27.749 86.952 29.5268 86.952 31.8877C86.9225 33.3526 87.9635 34.7962 90.6879 35.6425C92.1867 36.1332 92.5854 36.4389 92.5854 37.1074C92.5854 37.7759 92.076 38.1385 90.8504 38.1385C89.6247 38.1385 88.126 37.655 87.3729 37.2212V40.3075C88.3105 40.6559 89.5214 40.8835 90.8504 40.8835C94.5863 40.8835 96.4837 39.1554 96.4837 36.7945C96.4542 34.9669 95.4427 33.7367 92.9546 32.9402H92.962Z" fill="#F7AF18"/>
<path d="M105.402 34.1136C105.218 34.8318 105.004 35.7847 104.819 36.4532H104.738C104.576 35.7847 104.31 34.8602 104.096 34.1136L102.058 27.7419H97.5468L102.442 39.4399C102.575 39.7457 102.597 39.9519 102.604 40.087C102.759 43.9058 97.8347 43.2089 97.5468 43.3155V46.5156C97.5468 46.5156 100.101 46.5725 101.142 46.5156C105.284 46.3094 106.444 41.2177 108.311 36.2256L111.693 27.7419H107.337L105.402 34.1136Z" fill="url(#paint2_linear_1530_10349)"/>
<path d="M108.289 22.3444H104.694L101.061 26.5756H104.347L108.289 22.3444Z" fill="url(#paint3_linear_1530_10349)"/>
</g>
<defs>
<linearGradient id="paint0_linear_1530_10349" x1="23.5746" y1="39.9092" x2="14.0702" y2="5.49365" gradientUnits="userSpaceOnUse">
<stop stop-color="#F7AF18"/>
<stop offset="0.32" stop-color="#F4A221"/>
<stop offset="0.9" stop-color="#E85D1F"/>
</linearGradient>
<linearGradient id="paint1_linear_1530_10349" x1="112.483" y1="34.3056" x2="122.015" y2="34.3056" gradientUnits="userSpaceOnUse">
<stop stop-color="#EC781F"/>
<stop offset="1" stop-color="#E85D1F"/>
</linearGradient>
<linearGradient id="paint2_linear_1530_10349" x1="97.5468" y1="37.1358" x2="111.693" y2="37.1358" gradientUnits="userSpaceOnUse">
<stop stop-color="#F7AF18"/>
<stop offset="1" stop-color="#EC781F"/>
</linearGradient>
<linearGradient id="paint3_linear_1530_10349" x1="101.061" y1="24.4564" x2="108.289" y2="24.4564" gradientUnits="userSpaceOnUse">
<stop stop-color="#F7AF18"/>
<stop offset="1" stop-color="#EC781F"/>
</linearGradient>
<clipPath id="clip0_1530_10349">
<rect width="122" height="52" fill="white"/>
</clipPath>
</defs>
</svg>
