<?xml version="1.0" encoding="utf-8"?>
<!-- Generator: Adobe Illustrator 27.4.0, SVG Export Plug-In . SVG Version: 6.00 Build 0)  -->
<svg version="1.1" id="Capa_1" xmlns="http://www.w3.org/2000/svg" xmlns:xlink="http://www.w3.org/1999/xlink" x="0px" y="0px"
	 viewBox="0 0 379 104.9" style="enable-background:new 0 0 379 104.9;" xml:space="preserve">
<style type="text/css">
	.st0{fill:#13B5EA;}
	.st1{fill:#BFB8B8;}
</style>
<g id="logo">
</g>
<path class="st0" d="M193.8,38.9c4,0,7.2,3.3,7.2,7.1c0,4-3.3,7.2-7.2,7.2s-7.1-3.3-7.1-7.2C186.6,42.2,189.9,38.9,193.8,38.9
	L193.8,38.9L193.8,38.9z"/>
<path class="st1" d="M108.7,90.9c2.8,4,7.5,6.1,11.9,6.1c3.8,0,6.6-2.4,6.6-4.8c0-8.1-22.1-6.6-22.1-21.2c0-8.4,7.4-12.9,14.5-12.9
	c6,0,10.9,2.3,14.1,6.6c-2.2,1.7-4.3,3.6-6.5,5.4c-1.5-2.2-4.5-3.9-7.5-3.9c-2.7,0-5,1.5-5,4.3c0,7,22.4,6.6,22.4,21
	c0,7.8-6.3,13.9-16.5,13.9c-7.6,0-14.4-2.9-18.5-8.8L108.7,90.9L108.7,90.9L108.7,90.9z M173.6,104.5L173.6,104.5h11l-20.1-28.6
	l14.7-17H168l-14.8,17.3v-44H143v72.3h10.2V88.8l5.1-5.9L173.6,104.5L173.6,104.5z M188.6,104.5L188.6,104.5h10.2V59h-10.2V104.5
	L188.6,104.5z M240.8,72.1L240.8,72.1c2.2-2.1,4.5-4.2,6.7-6.5c-4.3-4.7-10.1-7.7-17.1-7.7c-13.2,0-23.1,10.5-23.1,23.7
	s9.9,23.7,23.2,23.7c7.6,0,13.6-3.2,18-9.2l-7.3-5.8c-2.4,3.5-6.1,5.8-10.7,5.8c-7.7,0-13.2-5.9-13.2-14.5c0-8.4,5.3-14.5,13.2-14.5
	C235.1,67.1,238.1,69.1,240.8,72.1L240.8,72.1z M293.5,104.5L293.5,104.5c0,0,0-2.9,0-11.9s0-16.7,0-16.7c0-10.9-7.5-18.3-19.8-18.3
	c-12.6,0-17.9,9-17.9,9l7.2,5.5c2.3-3.4,6.3-5.4,10.3-5.4c6.3,0,10.3,3.9,10.3,9.5v2.3C281.3,78,277,77,272.1,77
	c-13.8,0-20.4,6.8-20.4,15c0,6.8,5.2,13.4,15.5,13.4c9.1,0,14.6-4.5,17.5-9C286.1,101.2,289.2,104.5,293.5,104.5L293.5,104.5z
	 M283.6,85.2L283.6,85.2c-1.1,6-5.9,12-14.2,12c-5,0-7.4-2.6-7.4-5.8c0-4.3,4.6-7.4,11.8-7.4C277.4,84,281.4,84.7,283.6,85.2
	L283.6,85.2z M304,90.9L304,90.9l-6.6,5.8c4.1,5.9,10.9,8.8,18.5,8.8c10.2,0,16.5-6.1,16.5-13.9c0-14.4-22.4-14-22.4-21
	c0-2.8,2.3-4.3,5-4.3c3,0,6,1.6,7.5,3.9c2.1-1.8,4.2-3.7,6.5-5.4c-3.2-4.3-8.1-6.6-14.1-6.6c-7,0-14.5,4.5-14.5,12.9
	c0,14.6,22.1,13.1,22.1,21.2c0,2.4-2.8,4.8-6.6,4.8C311.5,96.9,306.8,94.9,304,90.9L304,90.9z M335.1,81.6L335.1,81.6
	c0,13.6,9.4,23.8,23.2,23.8c10.4,0,15.6-3.9,20.1-9.8l-6.8-5.2c-2.5,3.7-6.7,6.6-12.9,6.6c-6.6,0-12.6-4-13.6-12.9H379v-2.5
	c0-12.9-6.6-23.7-21.3-23.7C344,57.9,335.1,68.6,335.1,81.6L335.1,81.6z M345.4,77.4L345.4,77.4c1.3-7.3,6.4-11.1,12.2-11.1
	c6.3,0,10.5,4.2,11.4,11.1H345.4L345.4,77.4z"/>
<path class="st0" d="M77.7,63.4c0-2.4-1.8-4.7-4.1-5.3c-2.3-0.6-4.1,0.9-4.1,3.2s1.8,4.7,4.1,5.3C75.9,67.2,77.7,65.7,77.7,63.4
	L77.7,63.4z M81.1,31.2v73.7L54,89.3V15.6L81.1,31.2L81.1,31.2z M27,31.2L27,31.2v73.7l-0.1-0.1v0.1l-15.7-9.1v-0.1L0,89.3V15.6
	L27,0l27,15.6L27,31.2L27,31.2z"/>
</svg>
